HIERARCHY
ROOT reference
{
  OFFSET 0 0 0
  CHANNELS 6 Xposition Yposition Zposition Zrotation Xrotation Yrotation
  JOINT Hips
  {
    OFFSET 370.543 87.5 183.721
    CHANNELS 3 Zrotation Xrotation Yrotation
    JOINT RightUpLeg
    {
      OFFSET -9.29072 -1.53718 -0.00769521
      CHANNELS 3 Zrotation Xrotation Yrotation
      JOINT RightLeg
      {
        OFFSET 0.000649198 -41.8926 0.0287464
        CHANNELS 3 Zrotation Xrotation Yrotation
        JOINT RightFoot
        {
          OFFSET -0.131981 -42.8927 0.241786
          CHANNELS 3 Zrotation Xrotation Yrotation
          End Site
          {
            OFFSET 0 -7.69 17.5
          }
        }
      }
    }
    JOINT LeftUpLeg
    {
      OFFSET 9.29816 -1.6623 -0.0330144
      CHANNELS 3 Zrotation Xrotation Yrotation
      JOINT LeftLeg
      {
        OFFSET 0.0555409 -41.8801 -0.0492089
        CHANNELS 3 Zrotation Xrotation Yrotation
        JOINT LeftFoot
        {
          OFFSET 0.737583 -41.1094 -0.206555
          CHANNELS 3 Zrotation Xrotation Yrotation
          End Site
          {
            OFFSET 0 -7.69 17.5
          }
        }
      }
    }
    JOINT Spine
    {
      OFFSET 0.0742767 14.2946 0.0485675
      CHANNELS 3 Zrotation Xrotation Yrotation
      JOINT Spine1
      {
        OFFSET 0.0332084 9.70841 0.0159593
        CHANNELS 3 Zrotation Xrotation Yrotation
        JOINT Spine2
        {
          OFFSET 0.0388468 10.1231 0.00288192
          CHANNELS 3 Zrotation Xrotation Yrotation
          JOINT Spine3
          {
            OFFSET 0.0300771 9.71993 0.00776905
            CHANNELS 3 Zrotation Xrotation Yrotation
            JOINT Neck
            {
              OFFSET 0.058413 10.382 0.0516165
              CHANNELS 3 Zrotation Xrotation Yrotation
              JOINT Head
              {
                OFFSET 0.0298281 9.47849 0.0268718
                CHANNELS 3 Zrotation Xrotation Yrotation
                End Site
                {
                  OFFSET 0 15.95 0
                }
              }
            }
            JOINT RightShoulder
            {
              OFFSET -3.15612 6.91385 0.0353801
              CHANNELS 3 Zrotation Xrotation Yrotation
              JOINT RightArm
              {
                OFFSET -12.7781 -0.0057607 0.0332486
                CHANNELS 3 Zrotation Xrotation Yrotation
                JOINT RightForeArm
                {
                  OFFSET -26.4999 -0.0425897 0.0409183
                  CHANNELS 3 Zrotation Xrotation Yrotation
                  JOINT RightHand
                  {
                    OFFSET -25.993 -0.0294641 0.00108206
                    CHANNELS 3 Zrotation Xrotation Yrotation
                    JOINT RightHandThumb1
                    {
                      OFFSET -2.48905 0.190105 3.12053
                      CHANNELS 3 Zrotation Xrotation Yrotation
                      JOINT RightHandThumb2
                      {
                        OFFSET -3.68274 0 0
                        CHANNELS 3 Zrotation Xrotation Yrotation
                        JOINT RightHandThumb3
                        {
                          OFFSET -2.55832 0 0
                          CHANNELS 3 Zrotation Xrotation Yrotation
                          End Site
                          {
                            OFFSET -2.194 0 0
                          }
                        }
                      }
                    }
                    JOINT RightInHandIndex
                    {
                      OFFSET -3.22368 0.508421 1.97842
                      CHANNELS 3 Zrotation Xrotation Yrotation
                      JOINT RightHandIndex1
                      {
                        OFFSET -5.21684 -0.091368 0.999158
                        CHANNELS 3 Zrotation Xrotation Yrotation
                        JOINT RightHandIndex2
                        {
                          OFFSET -3.61937 0 0
                          CHANNELS 3 Zrotation Xrotation Yrotation
                          JOINT RightHandIndex3
                          {
                            OFFSET -2.0521 0 0
                            CHANNELS 3 Zrotation Xrotation Yrotation
                            End Site
                            {
                              OFFSET -1.805 0 0
                            }
                          }
                        }
                      }
                    }
                    JOINT RightInHandMiddle
                    {
                      OFFSET -3.38211 0.517263 0.756737
                      CHANNELS 3 Zrotation Xrotation Yrotation
                      JOINT RightHandMiddle1
                      {
                        OFFSET -5.17411 -0.084 0.313895
                        CHANNELS 3 Zrotation Xrotation Yrotation
                        JOINT RightHandMiddle2
                        {
                          OFFSET -3.94947 0 0
                          CHANNELS 3 Zrotation Xrotation Yrotation
                          JOINT RightHandMiddle3
                          {
                            OFFSET -2.47579 0 0
                            CHANNELS 3 Zrotation Xrotation Yrotation
                            End Site
                            {
                              OFFSET -1.975 0 0
                            }
                          }
                        }
                      }
                    }
                    JOINT RightInHandRing
                    {
                      OFFSET -3.36516 0.537895 -0.128947
                      CHANNELS 3 Zrotation Xrotation Yrotation
                      JOINT RightHandRing1
                      {
                        OFFSET -4.63474 -0.022105 -0.478947
                        CHANNELS 3 Zrotation Xrotation Yrotation
                        JOINT RightHandRing2
                        {
                          OFFSET -3.44238 0 0
                          CHANNELS 3 Zrotation Xrotation Yrotation
                          JOINT RightHandRing3
                          {
                            OFFSET -2.3881 0 0
                            CHANNELS 3 Zrotation Xrotation Yrotation
                            End Site
                            {
                              OFFSET -1.857 0 0
                            }
                          }
                        }
                      }
                    }
                    JOINT RightInHandPinky
                    {
                      OFFSET -3.16105 0.469368 -1.20179
                      CHANNELS 3 Zrotation Xrotation Yrotation
                      JOINT RightHandPinky1
                      {
                        OFFSET -4.14105 -0.022105 -1.09053
                        CHANNELS 3 Zrotation Xrotation Yrotation
                        JOINT RightHandPinky2
                        {
                          OFFSET -2.75653 0 0
                          CHANNELS 3 Zrotation Xrotation Yrotation
                          JOINT RightHandPinky3
                          {
                            OFFSET -1.74189 0 0
                            CHANNELS 3 Zrotation Xrotation Yrotation
                            End Site
                            {
                              OFFSET -1.645 0 0
                            }
                          }
                        }
                      }
                    }
                  }
                }
              }
            }
            JOINT LeftShoulder
            {
              OFFSET 3.24463 6.9123 -0.0189685
              CHANNELS 3 Zrotation Xrotation Yrotation
              JOINT LeftArm
              {
                OFFSET 12.8793 -0.0485389 -0.0634723
                CHANNELS 3 Zrotation Xrotation Yrotation
                JOINT LeftForeArm
                {
                  OFFSET 26.4894 0.00252616 -0.136149
                  CHANNELS 3 Zrotation Xrotation Yrotation
                  JOINT LeftHand
                  {
                    OFFSET 26.005 0.0292639 -0.0166184
                    CHANNELS 3 Zrotation Xrotation Yrotation
                    JOINT LeftHandThumb1
                    {
                      OFFSET 2.48905 0.190105 3.12053
                      CHANNELS 3 Zrotation Xrotation Yrotation
                      JOINT LeftHandThumb2
                      {
                        OFFSET 3.68274 0 0
                        CHANNELS 3 Zrotation Xrotation Yrotation
                        JOINT LeftHandThumb3
                        {
                          OFFSET 2.55832 0 0
                          CHANNELS 3 Zrotation Xrotation Yrotation
                          End Site
                          {
                            OFFSET 2.194 0 0
                          }
                        }
                      }
                    }
                    JOINT LeftInHandIndex
                    {
                      OFFSET 3.22368 0.508421 1.97842
                      CHANNELS 3 Zrotation Xrotation Yrotation
                      JOINT LeftHandIndex1
                      {
                        OFFSET 5.21684 -0.091368 0.999158
                        CHANNELS 3 Zrotation Xrotation Yrotation
                        JOINT LeftHandIndex2
                        {
                          OFFSET 3.61937 0 0
                          CHANNELS 3 Zrotation Xrotation Yrotation
                          JOINT LeftHandIndex3
                          {
                            OFFSET 2.0521 0 0
                            CHANNELS 3 Zrotation Xrotation Yrotation
                            End Site
                            {
                              OFFSET 1.805 0 0
                            }
                          }
                        }
                      }
                    }
                    JOINT LeftInHandMiddle
                    {
                      OFFSET 3.38211 0.517263 0.756737
                      CHANNELS 3 Zrotation Xrotation Yrotation
                      JOINT LeftHandMiddle1
                      {
                        OFFSET 5.17411 -0.084 0.313895
                        CHANNELS 3 Zrotation Xrotation Yrotation
                        JOINT LeftHandMiddle2
                        {
                          OFFSET 3.94947 0 0
                          CHANNELS 3 Zrotation Xrotation Yrotation
                          JOINT LeftHandMiddle3
                          {
                            OFFSET 2.47579 0 0
                            CHANNELS 3 Zrotation Xrotation Yrotation
                            End Site
                            {
                              OFFSET 1.975 0 0
                            }
                          }
                        }
                      }
                    }
                    JOINT LeftInHandRing
                    {
                      OFFSET 3.36516 0.537895 -0.128947
                      CHANNELS 3 Zrotation Xrotation Yrotation
                      JOINT LeftHandRing1
                      {
                        OFFSET 4.63474 -0.022105 -0.478947
                        CHANNELS 3 Zrotation Xrotation Yrotation
                        JOINT LeftHandRing2
                        {
                          OFFSET 3.44238 0 0
                          CHANNELS 3 Zrotation Xrotation Yrotation
                          JOINT LeftHandRing3
                          {
                            OFFSET 2.3881 0 0
                            CHANNELS 3 Zrotation Xrotation Yrotation
                            End Site
                            {
                              OFFSET 1.857 0 0
                            }
                          }
                        }
                      }
                    }
                    JOINT LeftInHandPinky
                    {
                      OFFSET 3.16105 0.469368 -1.20179
                      CHANNELS 3 Zrotation Xrotation Yrotation
                      JOINT LeftHandPinky1
                      {
                        OFFSET 4.14105 -0.022105 -1.09053
                        CHANNELS 3 Zrotation Xrotation Yrotation
                        JOINT LeftHandPinky2
                        {
                          OFFSET 2.75653 0 0
                          CHANNELS 3 Zrotation Xrotation Yrotation
                          JOINT LeftHandPinky3
                          {
                            OFFSET 1.74189 0 0
                            CHANNELS 3 Zrotation Xrotation Yrotation
                            End Site
                            {
                              OFFSET 1.645 0 0
                            }
                          }
                        }
                      }
                    }
                  }
                }
              }
            }
          }
        }
      }
    }
  }
}
MOTION
Frames: 2
Frame Time: 0.00833333
4.500000000000000000e+02 0.000000000000000000e+00 0.000000000000000000e+00 0.000000000000000000e+00 0.000000000000000000e+00 0.000000000000000000e+00 1.421732901572092533e-02 -9.869294696820886392e-03 -4.349911792576884734e-02 1.967051846057171066e-02 -1.964979857551608922e-02 -1.973358345288712956e-02 1.641753394570457172e-02 7.882427726101258122e-03 1.121704442100353860e-01 1.605193339251803353e-01 -1.943290579594875644e-03 -1.049194086869975201e-01 3.893777562141790410e-02 4.112864759501463213e-02 7.203226474019730485e-02 1.508850980254413873e-02 3.104972282622154960e-03 -9.720198883699891768e-02 -5.284554273966211163e-03 -4.142561009592279908e-02 8.168521052915221625e-02 2.497190599399397304e-02 -2.485882612181397611e-02 1.213038091722600485e-02 3.805040618026598633e-03 -3.318684160933268144e-03 3.843680720132205096e-03 6.287181994318564310e-03 -6.634103871509224731e-03 1.980245759838723026e-03 -2.241052638926886546e-03 -2.451324727663330583e-03 2.640714822975413138e-04 1.683213158818098326e-02 -4.950812403941499268e-02 9.804574033453482274e-02 -3.861152204822643208e-02 3.116232791225194768e-02 -1.370057893021753639e-02 -1.895502269280245275e-02 3.849921729903712370e-02 9.609600230841545965e-02 -7.649604742050184480e-01 -1.288642179249246955e-01 -8.192831644329745533e-01 2.282295284389803947e-01 7.975829138248373418e-02 5.098048288073721984e-02 7.352433928360957438e-02 2.997054278332960675e-01 2.298073062658444882e-02 0.000000000000000000e+00 0.000000000000000000e+00 0.000000000000000000e+00 -2.000431176488702242e-15 -2.074939350759594035e-15 0.000000000000000000e+00 -2.195339936637691317e-15 -1.221713763774174444e-15 0.000000000000000000e+00 -2.367037879560522325e-15 -8.307419900560774616e-16 3.099247774080447452e-16 0.000000000000000000e+00 0.000000000000000000e+00 0.000000000000000000e+00 0.000000000000000000e+00 -5.885108200182001277e-16 2.681054518391218394e-15 0.000000000000000000e+00 9.327886119998613682e-17 -1.164078042818341596e-15 -2.367037879560522325e-15 -8.307419900560774616e-16 3.099247774080447452e-16 0.000000000000000000e+00 9.806553071232399339e-17 5.984736133462823671e-16 0.000000000000000000e+00 -1.356679786884589913e-15 4.472723322747553058e-16 0.000000000000000000e+00 -7.631839942881451117e-16 -6.653699512881335474e-16 -2.367037879560522325e-15 -8.307419900560774616e-16 3.099247774080447452e-16 0.000000000000000000e+00 0.000000000000000000e+00 0.000000000000000000e+00 0.000000000000000000e+00 -6.054225873768274675e-16 -9.251409349304679366e-16 0.000000000000000000e+00 7.056840891720288640e-16 -2.057715664286545351e-15 -2.367037879560522325e-15 -8.307419900560774616e-16 3.099247774080447452e-16 0.000000000000000000e+00 0.000000000000000000e+00 0.000000000000000000e+00 0.000000000000000000e+00 1.434097283774037842e-15 -1.885397134311132887e-16 0.000000000000000000e+00 -1.334029806972859813e-15 1.662619429022948871e-16 6.819296120195043887e-02 1.089482646634818280e-01 1.861375415604691885e-01 -3.827790134060711502e-02 3.200849466600373672e-02 -2.438403535942810368e-02 -5.998622085239477264e-04 6.131898250754226620e-03 -2.845802211809659310e-01 3.652827448121795384e-02 -5.888501503071494336e-02 7.313885238200544536e-02 0.000000000000000000e+00 0.000000000000000000e+00 0.000000000000000000e+00 2.419670175067101395e-15 -2.809807823285041432e-15 0.000000000000000000e+00 8.961401206320714293e-16 -2.999355578761903612e-15 0.000000000000000000e+00 3.704020832071777146e-15 -1.816711897079142505e-16 -4.297986954677930780e-16 0.000000000000000000e+00 0.000000000000000000e+00 0.000000000000000000e+00 0.000000000000000000e+00 8.640932820552409176e-17 8.725114645273945010e-16 0.000000000000000000e+00 7.074517465966654860e-16 1.830006004848484383e-16 3.704020832071777146e-15 -1.816711897079142505e-16 -4.297986954677930780e-16 0.000000000000000000e+00 -2.291207069584592006e-16 5.945132650335380020e-16 0.000000000000000000e+00 3.177319202575718491e-16 7.700679083903129436e-16 0.000000000000000000e+00 -9.996144890952268726e-17 4.676095979719911514e-16 3.704020832071777146e-15 -1.816711897079142505e-16 -4.297986954677930780e-16 0.000000000000000000e+00 0.000000000000000000e+00 0.000000000000000000e+00 0.000000000000000000e+00 -2.669508999455068344e-16 1.119055029331896657e-17 0.000000000000000000e+00 8.412285124576877060e-16 6.344739669205509083e-16 3.704020832071777146e-15 -1.816711897079142505e-16 -4.297986954677930780e-16 0.000000000000000000e+00 0.000000000000000000e+00 0.000000000000000000e+00 0.000000000000000000e+00 9.176316520981759305e-16 -1.055499556382016044e-15 0.000000000000000000e+00 1.053096271140754375e-15 4.359243851320307039e-16
4.500000000000000000e+02 0.000000000000000000e+00 0.000000000000000000e+00 0.000000000000000000e+00 0.000000000000000000e+00 0.000000000000000000e+00 1.125358505526994311e-02 6.505113969312924065e-05 -5.187526190764848999e-02 2.955504397775905734e-02 -9.728007171848131532e-03 1.201301059260295040e-02 1.430948010661824144e-02 9.840757887076972965e-03 8.918968859433959451e-02 1.780669339490406067e-01 7.041961174215171163e-03 -1.071018633165940342e-01 2.387257750199802894e-02 2.831839604842363231e-02 1.012947983142824249e-02 -7.656952011323084686e-03 -2.546685137892720080e-02 -5.037420972929659499e-03 -3.128681460033239797e-02 -4.046581394486188643e-02 7.412906823189402417e-02 2.577820291580875875e-02 -1.029718495994917313e-02 1.677959908723534316e-02 3.799435717089792372e-03 6.445119708130530580e-04 4.854547092965392184e-03 7.183607301933375711e-03 -5.036395583544210283e-04 4.675101606700171088e-03 -2.033975883777133006e-03 -3.331468671341361598e-03 4.063348473125705869e-04 1.790461562930304937e-02 -4.622011637995504518e-02 9.225186781908202571e-02 -2.987088398018354976e-02 8.521004965569248246e-03 -2.122631841971901745e-03 1.498263113266407216e-02 5.267703143878969818e-02 1.288246661881558841e-01 -7.844926467985275931e-01 -1.368607912902109480e-01 -8.010240885665966815e-01 2.040009439611197573e-01 1.019806673002456171e-01 4.218526239322517579e-02 1.256961518453140331e-02 1.183121154143070286e-01 -2.837038950762486161e-02 0.000000000000000000e+00 0.000000000000000000e+00 0.000000000000000000e+00 -8.904472993898750537e-16 -1.388565022950598245e-15 0.000000000000000000e+00 -1.755821829034005770e-15 -3.031840869974261163e-16 0.000000000000000000e+00 -4.514457308808090029e-16 -1.304314902179443997e-15 2.834608306091166046e-16 0.000000000000000000e+00 0.000000000000000000e+00 0.000000000000000000e+00 0.000000000000000000e+00 -7.862437901669137382e-17 2.080363996841834233e-15 0.000000000000000000e+00 9.678564259131794585e-17 -1.291617687094191111e-15 -4.514457308808090029e-16 -1.304314902179443997e-15 2.834608306091166046e-16 0.000000000000000000e+00 -7.116488547093497671e-16 -4.761519400480091401e-17 0.000000000000000000e+00 -6.133635872609648081e-16 5.658014279327161236e-16 0.000000000000000000e+00 -3.578089909393147494e-16 -3.890382200548504670e-16 -4.514457308808090029e-16 -1.304314902179443997e-15 2.834608306091166046e-16 0.000000000000000000e+00 0.000000000000000000e+00 0.000000000000000000e+00 0.000000000000000000e+00 -7.811396291132414326e-16 8.236490766960265425e-17 0.000000000000000000e+00 8.001456852295835533e-16 -1.643607183772980320e-15 -4.514457308808090029e-16 -1.304314902179443997e-15 2.834608306091166046e-16 0.000000000000000000e+00 0.000000000000000000e+00 0.000000000000000000e+00 0.000000000000000000e+00 7.497188293231907675e-16 1.580771299757005164e-16 0.000000000000000000e+00 -8.932515490022990038e-16 -3.139267811841512587e-16 6.079030455157733576e-04 3.464034301515440256e-02 1.079832762934174184e-02 -1.537461193904129109e-01 8.928368386392974976e-02 1.823241942358879153e-01 1.480220013348627385e-02 2.731879000900083732e-02 -3.017483999677148532e-01 1.680334485015810841e-04 -5.746969157892702594e-03 -7.761899051096143864e-02 0.000000000000000000e+00 0.000000000000000000e+00 0.000000000000000000e+00 3.356037190068509131e-15 -3.544997686433027602e-15 0.000000000000000000e+00 1.587994016236486873e-15 -3.568647299177077471e-15 0.000000000000000000e+00 1.600521362191759872e-15 -1.410858058117065950e-16 -2.099579207276215776e-16 0.000000000000000000e+00 0.000000000000000000e+00 0.000000000000000000e+00 0.000000000000000000e+00 6.791652094542630177e-17 9.059207587198854301e-16 0.000000000000000000e+00 2.516098524132179908e-16 5.336954651120992081e-16 1.600521362191759872e-15 -1.410858058117065950e-16 -2.099579207276215776e-16 0.000000000000000000e+00 -3.035314804848072425e-16 6.291810608948925935e-16 0.000000000000000000e+00 3.006631190627968770e-16 6.256541523535260444e-16 0.000000000000000000e+00 -1.560617565556096895e-16 5.912655975402254427e-16 1.600521362191759872e-15 -1.410858058117065950e-16 -2.099579207276215776e-16 0.000000000000000000e+00 0.000000000000000000e+00 0.000000000000000000e+00 0.000000000000000000e+00 -2.009579100314728356e-16 1.028027297215546230e-16 0.000000000000000000e+00 6.843812115345477182e-16 4.441958809004843803e-16 1.600521362191759872e-15 -1.410858058117065950e-16 -2.099579207276215776e-16 0.000000000000000000e+00 0.000000000000000000e+00 0.000000000000000000e+00 0.000000000000000000e+00 8.338987461063956924e-16 -5.014769766622648897e-16 0.000000000000000000e+00 1.813335449476991953e-15 1.733805832398768217e-16
